<?xml version="1.0" encoding="utf-8"?>
<!DOCTYPE svg PUBLIC "-//W3C//DTD SVG 1.0//EN" "http://www.w3.org/TR/2001/REC-SVG-20010904/DTD/svg10.dtd">
<svg version="1.0" xmlns="http://www.w3.org/2000/svg" width="1920px" height="1080px" viewBox="0 0 1920 1080" preserveAspectRatio="xMidYMid meet">
 <g fill="#ffffff">
  <path d="M0 859 l0 -221 2.8 0 c4.6 0 14.2 2.9 20.3 6.1 6.2 3.3 17.7 14.3 19.5 18.5 1 2.4 1.2 2.5 2.7 0.9 0.9 -0.8 4.2 -2.8 7.4 -4.3 5.3 -2.4 6.9 -2.7 17.3 -2.6 10 0 12.1 0.3 16.3 2.3 2.6 1.3 5 2.7 5.3 3.2 0.3 0.5 2.3 -0.6 4.5 -2.5 4.4 -3.7 7.4 -4.6 15.9 -4.6 4.4 0 6.5 0.6 9.4 2.5 l3.6 2.4 4.6 -2.8 c8.2 -5.3 26.4 -6.5 36 -2.5 l3.6 1.5 7.3 -7.1 c5.3 -5.1 9.3 -7.9 14.7 -10.4 9.9 -4.5 15.7 -5.6 30.1 -5.6 11.6 0 12.6 0.2 19.9 3.4 4.2 1.8 10 5.1 12.9 7.2 l5.3 3.8 12.5 0.1 c9.7 0 13.3 0.4 15.8 1.6 2.4 1.3 4.2 1.5 7.5 0.8 2.3 -0.4 8.9 -0.8 14.6 -0.9 12.8 0 22.3 2.9 32 9.9 l3.4 2.3 5.1 -2.5 c11.3 -5.4 28.2 -7.1 42.2 -4.2 8 1.7 19.5 7.1 24.1 11.2 6.3 5.8 6.1 5.7 9.1 3.8 6.7 -4.4 21.1 -5.7 31.7 -3 3.2 0.8 8.2 3.1 11.1 5 l5.2 3.5 5.8 -3.4 c7.3 -4.4 14.7 -6 25.4 -5.3 7.8 0.5 8.7 0.3 15 -2.7 6.2 -2.9 7.3 -3.1 17.6 -3.1 9.6 0 11.7 0.3 16.5 2.5 l5.5 2.5 4.5 -2.2 c2.6 -1.4 6.3 -2.3 9 -2.3 4.2 -0.1 4.7 -0.3 7.1 -4.4 8.6 -14.1 34.4 -10.2 37.6 5.7 0.4 1.9 1 2.6 2 2.3 0.8 -0.4 3.1 -0.6 5.1 -0.6 3.5 0 3.8 -0.3 6.6 -6.1 3.2 -6.7 8.4 -11.6 16.2 -15.1 4.1 -1.9 6.6 -2.3 15.9 -2.3 10 0 11.6 0.3 17 2.8 6.7 3.1 9.4 5.4 13.6 11.1 l2.8 3.8 11.3 0.2 c9.9 0.2 12 0.6 17.3 3 3.3 1.5 6.1 2.3 6.3 1.7 0.6 -1.7 6 -8.1 8.6 -10.2 10.3 -8.1 31.2 -9.2 43.3 -2.2 4.7 2.7 11.7 10 12.7 13.1 0.7 2 0.8 2 4.4 0.5 5.3 -2.2 19.5 -2.8 26 -1 3.8 1 5.4 1.1 5.7 0.3 3 -11 10 -19.8 18.8 -23.7 4.5 -2 6.9 -2.4 16.7 -2.4 10.4 0 12 0.3 17 2.6 3 1.4 7.5 4.4 10 6.6 4.4 3.9 4.6 4 11 3.5 4.3 -0.2 8 0.1 10.9 1.1 l4.4 1.6 4.1 -3.3 c4.6 -3.7 14 -8.7 20.1 -10.8 2.6 -0.8 9.1 -1.3 18.5 -1.3 14.2 0 14.6 0.1 22.5 3.4 12.3 5.3 19.5 10.9 25.7 20.4 2.4 3.6 2.5 3.7 4.2 1.8 5.4 -6 23.8 -8.9 35.2 -5.6 3.2 0.9 7.3 2.5 8.9 3.5 l3.1 1.9 2.7 -2.9 c3.8 -3.9 8.7 -5.3 16.7 -4.8 4.9 0.4 7.7 1.2 10 2.8 2.8 2 3.3 2.1 4.8 0.6 1 -0.8 4 -2.5 6.7 -3.8 6.9 -3.1 23.4 -3.3 31.3 -0.3 5.3 1.9 5.4 1.9 6.4 0 1.7 -3 8.4 -9.2 14.2 -13.1 9.1 -6 15.4 -7.7 30.8 -8.2 16.9 -0.5 23.5 1.1 35.4 9 l7.9 5.2 11 -0.3 c7.1 -0.2 12.1 0.2 14 1 1.9 0.7 9.4 1.2 21 1.4 17.8 0.1 18.1 0.2 25.2 3.2 4 1.8 8.8 4.3 10.6 5.7 l3.4 2.6 5.6 -2.5 c11.6 -5.3 30.5 -7.1 43.6 -4 7.9 1.9 18.1 7.2 24.1 12.5 4.1 3.6 4.6 3.8 6.5 2.6 4 -2.6 12.8 -4.6 20.5 -4.6 10.8 0 19.4 2.8 25.6 8.2 2.1 1.9 2.2 1.8 8 -1.6 7.6 -4.5 13.6 -5.8 25.4 -5.5 8.7 0.2 10 0 15.5 -2.7 5.5 -2.7 6.9 -2.9 17.5 -2.9 10.5 0 12 0.2 16.9 2.7 l5.4 2.6 2.8 -2.1 c1.9 -1.4 4.9 -2.2 8.9 -2.5 5.5 -0.4 6.1 -0.7 7.9 -3.7 1 -1.8 3.6 -4.5 5.7 -6.1 3.2 -2.5 4.8 -2.9 11.4 -3.2 6.8 -0.4 8.2 -0.1 11.6 2.1 5.2 3.2 7.3 5.8 8.9 10.4 1.3 3.8 1.3 3.8 6.2 3.4 2.6 -0.1 5.1 -0.5 5.4 -0.7 0.3 -0.1 1.2 -2.2 1.9 -4.4 2.4 -7.1 16.5 -18 23.4 -18 1.2 0 2.7 -0.5 3.3 -1.1 2.3 -2.3 19.7 0.8 26.7 4.7 4 2.2 5.8 4 12.5 12 1.5 1.9 2.5 2.1 8.7 1.7 7.8 -0.6 16.3 0.9 22 3.7 3.6 1.9 3.9 1.9 4.8 0.3 2.3 -4.2 9 -10.2 14.3 -12.8 5 -2.4 7.3 -2.9 17 -3.3 11.1 -0.5 11.4 -0.4 17.7 2.7 5.9 2.9 10.1 6.6 15.1 13.5 1.9 2.6 2.2 2.6 5.5 1.5 3.9 -1.4 24.3 -1.8 27.7 -0.6 1.9 0.7 2.5 0.4 3.4 -2 3.3 -8.2 5.5 -11.6 10 -15.7 6.7 -6 14.8 -8.6 27 -8.6 7.8 0 9.6 0.4 15.1 3 3.5 1.7 8 4.7 10.1 6.8 l3.8 3.7 8.5 -0.4 c6.7 -0.2 9 0 11 1.4 2.5 1.6 2.7 1.6 5.4 -1 1.6 -1.5 3.9 -3.3 5.2 -4.1 6.6 -3.7 13.7 -6.7 17.1 -7.1 l3.7 -0.6 0 220.7 0 220.6 -960 0 -960 0 0 -221z"/>
 </g>
 <g fill="#ff96ac">
  <path d="M1390 674 c-1 -1.8 -0.8 -2 2 -2 3.2 0 4.2 2.3 1.4 3.4 -2.2 0.8 -2.2 0.8 -3.4 -1.4z"/>
  <path d="M41.3 668.8 c-0.4 -0.7 -1.2 -2.3 -1.8 -3.6 -0.5 -1.2 -3.9 -5.2 -7.5 -8.8 -7.4 -7.4 -16.8 -12.7 -26.1 -14.5 l-5.9 -1.2 0 -320.3 0 -320.4 182.5 0 182.5 0 0 328.9 0 328.9 -3.2 0.7 c-3.2 0.7 -10.1 3.8 -14.4 6.5 -1.9 1.2 -2.7 0.9 -7 -2.1 -14.5 -10.1 -25.4 -12.5 -43.6 -9.7 -6.9 1 -8 0.9 -11.5 -0.8 -3 -1.5 -5.8 -1.9 -14.1 -1.8 -5.8 0.1 -10.8 0.6 -11.4 1.2 -0.7 0.7 -2.7 -0.3 -6.7 -3.6 -3.1 -2.5 -9 -6.1 -13.1 -8.1 -6.6 -3.1 -8.7 -3.6 -16.9 -3.9 -17.8 -0.7 -31.5 4.1 -43.2 15.4 -3.8 3.7 -6.9 7.3 -6.9 8.1 0 1.9 -2 1.6 -8.1 -1.1 -7.1 -3.1 -13.8 -3.8 -21.5 -2.5 -5.6 1 -9.9 3.1 -17.1 8.4 -1 0.7 -1.6 0.6 -2.3 -0.5 -0.5 -0.8 -1 -1.1 -1 -0.7 0 0.5 -1.4 -0.3 -3.1 -1.7 -3.9 -3.3 -6.7 -4 -12.5 -3.1 -3.8 0.5 -5.6 1.6 -9.4 5.4 l-4.8 4.8 -3.8 -2.9 c-6.5 -4.9 -10.2 -6.1 -19.4 -6.1 -7.1 -0.1 -9.4 0.3 -14.2 2.5 -3.2 1.5 -7 3.8 -8.5 5.2 -3.1 2.9 -4.8 3.2 -6 1.4z"/>
  <path d="M1309.3 661.7 c-2.3 -1.8 -4.2 -3.5 -4.3 -3.9 0 -1.3 6.4 -0.8 8.3 0.6 1.6 1.3 2.5 6.7 1 6.5 -0.5 0 -2.7 -1.5 -5 -3.2z"/>
  <path d="M1374.8 662.4 c-3.8 -2 -3.5 -3.4 0.7 -3.4 3.1 0 3.5 0.3 3.5 2.5 0 2.9 -0.5 3 -4.2 0.9z"/>
  <path d="M1229 651.1 c-2.7 -1.1 -7 -4.3 -7 -5.2 0 -1.5 6.7 -1 8 0.5 1.6 2.1 0.9 5.5 -1 4.7z"/>
  <path d="M1198.8 636.3 c-3.3 -0.8 -2 -3.3 1.7 -3.3 2.8 0 3.5 0.4 3.5 2 0 2 -1.4 2.3 -5.2 1.3z"/>
 </g>
 <g fill="#ffc62f">
  <path d="M1528.2 669.8 c-0.9 -0.9 -1.2 -76.8 -1.2 -335.5 l0 -334.3 196.5 0 196.5 0 0 320.9 0 320.9 -2.5 0.6 c-2.4 0.6 -9.6 3.9 -15.7 7.2 -1.5 0.8 -4.3 3.3 -6.2 5.5 l-3.4 4 -4.4 -3.1 c-3.9 -2.9 -4.8 -3.2 -9.9 -2.7 -3.1 0.3 -6.5 1 -7.6 1.7 -1.8 1.1 -2.5 0.7 -6.7 -3.8 -6.3 -6.8 -15.6 -11.2 -23.5 -11.2 -16.6 0 -29 9 -34.1 24.8 -1.5 4.7 -2.2 5 -7.1 2.5 -5 -2.6 -19.6 -2.3 -26.7 0.6 -2.9 1.1 -5.6 2.1 -6 2.1 -0.4 0 -1.3 -1.3 -2 -2.9 -2.4 -5.5 -9.1 -11.9 -15.8 -15.2 -6.1 -3.1 -6.8 -3.2 -14.9 -2.6 -12.9 0.9 -20.8 5.4 -27.9 15.9 l-3.3 4.8 -4.5 -3 c-6.6 -4.4 -16.4 -6.6 -23.6 -5.3 -4.5 0.9 -6.3 0.8 -8.4 -0.3 -1.6 -0.8 -2.8 -1.8 -2.8 -2.2 0 -1.9 -7.4 -9.2 -11.6 -11.6 -2.5 -1.4 -7.1 -3 -10.2 -3.6 -3.1 -0.6 -6.7 -1.3 -7.9 -1.6 -1.2 -0.2 -2.5 0 -2.8 0.6 -0.3 0.5 -1.7 1 -2.9 1 -6.9 0 -21 10.6 -23.5 17.6 -1.9 5.6 -2.9 6.4 -7 6.3 -2 -0.1 -5.3 0.2 -7.3 0.6 -3.6 0.7 -3.7 0.7 -4.7 -3.3 -1.4 -5 -4.2 -8.6 -9.4 -11.9 -7.5 -4.7 -17.7 -1.4 -22.9 7.3 -1.8 3.1 -2.5 3.4 -6.4 3.4 -5.2 0 -10.1 1.9 -12.8 4.9 -2.2 2.4 -3.7 2.6 -5.4 0.9z"/>
 </g>
 <g fill="#068fd3">
  <path d="M469.2 677.5 c-7.4 -7.2 -19.9 -10.8 -30.3 -8.6 -3.3 0.6 -8.5 2.6 -11.7 4.3 l-5.7 3.1 -5.4 -5.2 c-12 -11.4 -32.8 -17.5 -48.1 -14 -2.5 0.5 -5.3 1.2 -6.3 1.5 -1.6 0.5 -1.7 0.3 -0.8 -1.4 0.8 -1.5 1.1 -95.9 1.1 -329.6 l0 -327.6 195.5 0 195.5 0 0 325.3 0 325.4 -4.1 1.8 c-4.8 2.2 -11.1 8.2 -14.1 13.6 -1.2 2.2 -2.5 3.9 -2.8 3.9 -0.4 0 -1.9 -0.9 -3.3 -2 -7 -5.5 -19.4 -7.8 -30.3 -5.7 -3.7 0.8 -4.1 0.6 -5.2 -1.7 -2.2 -5 -9.1 -11.3 -15.5 -14.2 -8.1 -3.8 -19.5 -4 -27 -0.6 -9.2 4.1 -16.3 11.7 -18.2 19.3 -0.6 2.3 -1.1 2.5 -5.9 2.5 -2.9 -0.1 -6.5 0.5 -7.9 1.3 -3.2 1.7 -3.4 1.6 -4 -2.5 -1.1 -7 -5.6 -12.2 -12.4 -14.5 -7.3 -2.4 -16.6 1.8 -19.9 9 -1.9 4 -2 4.1 -6 3.5 -4.6 -0.6 -10.5 1.4 -14.2 4.9 -1.9 1.8 -2.6 1.9 -4 0.9 -0.9 -0.7 -4.2 -2.5 -7.2 -3.9 -4.5 -2.3 -6.9 -2.7 -13.5 -2.8 -6.7 0 -9 0.4 -14 2.8 -3.3 1.5 -6.3 3.3 -6.6 3.9 -0.6 0.9 -2.6 0.8 -7.9 -0.1 -12.1 -2.2 -22.9 0.5 -31.2 7.8 -2 1.7 -4 3 -4.4 3 -0.5 -0.1 -2.4 -1.6 -4.2 -3.4z"/>
  <path d="M1440.5 678 l-2.9 -3 3.5 0 c1.9 0 4.2 0.7 5.1 1.4 1.7 1.2 1.7 1.4 0 3 -2.4 2.1 -2.3 2.1 -5.7 -1.4z"/>
  <path d="M1527 669 c-1.4 -1.1 -4.6 -2.7 -7.2 -3.7 -5.7 -2 -6.4 -4.3 -1.3 -4.3 3.7 0 8.5 1.8 8.5 3.2 0 0.4 0.7 0.8 1.5 0.8 0.9 0 1.5 0.9 1.5 2.4 0 1.3 0.6 2.7 1.3 2.9 0.8 0.4 0.7 0.6 -0.3 0.6 -0.8 0 -2.6 -0.8 -4 -1.9z"/>
  <path d="M1764.3 667.5 c-1.4 -3.1 -1.2 -3.1 1.5 0 1.3 1.5 1.7 2.5 0.9 2.5 -0.6 0 -1.7 -1.1 -2.4 -2.5z"/>
  <path d="M91 666.9 c-1.8 -1.5 -1.9 -1.8 -0.5 -1.1 1.1 0.5 2.7 1.1 3.5 1.4 0.8 0.2 1 0.7 0.4 1 -0.5 0.4 -2.1 -0.3 -3.4 -1.3z"/>
  <path d="M1058.5 664.9 c-2.2 -1.7 -4.1 -3.4 -4.3 -4 -0.5 -1.2 6.6 -1.2 8.1 0.1 0.7 0.6 2.1 1.7 3.2 2.4 1.6 1.2 1.7 1.6 0.6 3 -1.8 2.2 -2.9 2 -7.6 -1.5z"/>
  <path d="M788.1 659.9 l-5.3 -5.9 4.1 0 c3.7 0 4.1 0.2 4.1 2.5 0 1.8 0.5 2.5 2 2.5 1.6 0 2 0.7 2 3.5 0 1.9 -0.3 3.5 -0.7 3.4 -0.5 0 -3.2 -2.7 -6.2 -6z"/>
  <path d="M1311.8 663 l-3.2 -3 3.1 0 c1.7 0 4.5 0.6 6.2 1.3 3 1.3 3.1 1.4 1.3 3 -2.6 2.3 -3.6 2.2 -7.4 -1.3z"/>
  <path d="M1140.6 661.3 c-1.1 -1.1 -0.6 -4.8 1 -7.1 1 -1.4 2.5 -2.2 4.5 -2.2 l3 0 -3.1 4.4 c-3.3 4.9 -4.4 5.9 -5.4 4.9z"/>
  <path d="M1300.3 656.5 c-4.3 -1.8 -4.2 -3.5 0.2 -3.5 3.1 0 3.5 0.3 3.5 2.5 0 1.4 -0.1 2.5 -0.2 2.5 -0.2 -0.1 -1.8 -0.7 -3.5 -1.5z"/>
  <path d="M1658.6 653.2 l-3 -3.7 3.7 3.4 c3.8 3.6 4.2 4.2 3 4 -0.5 0 -2.1 -1.7 -3.7 -3.7z"/>
  <path d="M895.3 653.5 c-1.1 -2.4 -1 -2.5 2.2 -2.5 4.1 0 5.5 1.8 3 3.7 -2.7 1.9 -3.8 1.6 -5.2 -1.2z"/>
  <path d="M1223.4 647.3 c-11.6 -6.8 -14.4 -8.6 -14.4 -9.4 0 -0.5 1.4 -0.9 3.2 -0.9 3.2 0 11.8 4.4 11.8 6 0 0.6 0.7 1 1.5 1 0.9 0 1.5 0.9 1.5 2.5 0 3 0.2 2.9 -3.6 0.8z"/>
 </g>
 <g fill="#31ac6b">
  <path d="M793.4 666.8 c-1 -2.4 -2.7 -4.9 -3.6 -5.6 -1 -0.7 -1.8 -2 -1.8 -2.8 0 -0.8 -0.5 -1.4 -1 -1.4 -0.6 0 -2.9 -1.2 -5.2 -2.6 -8 -5.1 -17.2 -6.5 -26.6 -4 l-5.2 1.3 0 -325.8 0 -325.9 197 0 197 0 0 329.1 c0 219.7 -0.3 329.7 -1 330.9 -1 1.8 -1.2 1.8 -5.9 -0.5 -13.1 -6.6 -27.2 -5.3 -37.8 3.4 l-3.6 3 -4 -3.4 c-7.3 -6.3 -16.5 -5.7 -23.3 1.5 -3.6 3.8 -3.7 3.8 -6.3 2.2 -1.4 -0.9 -2.8 -1.9 -3.1 -2.2 -0.3 -0.4 -4.1 -1.7 -8.4 -2.9 -12.4 -3.7 -23.2 -1.7 -32.4 5.9 -2 1.6 -4 3 -4.4 3 -0.4 0 -2.1 -2.1 -3.9 -4.7 -7.1 -10.7 -13.7 -16 -26.4 -21.4 -7.7 -3.2 -8.5 -3.3 -20 -3.2 -7.4 0 -13.5 0.6 -16 1.5 -7.2 2.5 -16 7.5 -21.1 12.2 l-5.1 4.5 -3.6 -2.6 c-3.9 -2.8 -10.3 -3.5 -16.3 -2 -2.8 0.7 -3.7 0.3 -8.5 -3.9 -8.7 -7.5 -14.8 -9.9 -24.9 -9.9 -10.2 0.1 -16.2 2.4 -22.9 8.8 -3.9 3.8 -9.1 12.5 -9.1 15.4 0 0.6 -0.4 2.3 -0.9 3.6 l-1 2.5 -5.3 -2.7 c-7.6 -3.8 -18.8 -3.7 -27.2 0.2 -3.2 1.5 -5.9 2.7 -6.1 2.7 -0.1 0 -1 -1.9 -2.1 -4.2z m168.5 -53.4 c9.8 -3.9 16.2 -16.5 16.2 -32 0.1 -12.1 -2.4 -19.8 -8.5 -26.2 -10 -10.7 -27.1 -10.8 -37.6 -0.2 -6.7 6.6 -8.5 12.4 -8.5 27 0 11 0.1 11.8 3.3 18.2 6.8 13.8 20.6 19 35.1 13.2z m69 1 c2.9 -0.8 6.9 -3 9.1 -5 6.3 -5.7 7 -9.3 7 -34.9 l0 -22.2 -2.5 -2.3 c-2.1 -2 -2.8 -2.2 -5 -1.2 -1.4 0.7 -3 2.3 -3.5 3.8 -0.6 1.4 -1 12.8 -1 25.4 0 24.3 -0.4 27 -4.7 28.9 -3.5 1.6 -12.5 1.4 -15 -0.4 -3.6 -2.5 -4.3 -7.7 -4.3 -31.3 l0 -22.3 -2.5 -2.4 c-2.9 -3 -5.8 -3.2 -8.4 -0.6 -4 4 -4.2 43.7 -0.3 52.4 2.6 5.7 7 9.6 13.4 11.8 6.6 2.3 10.9 2.4 17.7 0.3z m-234.9 -3.4 c0.5 -1 1 -4.1 1 -6.8 l0 -4.9 11.7 -0.6 c6.5 -0.3 12.1 -0.3 12.5 -0.1 0.4 0.3 0.8 3 0.8 6 0 4.5 0.4 5.9 2.5 7.9 3.1 3.2 5 3.1 8.2 -0.1 l2.6 -2.6 -0.6 -13.2 c-1 -20.7 -4.9 -35.4 -11.4 -43.2 -2.4 -2.9 -9.5 -6.4 -12.9 -6.4 -4.6 0 -11.2 3.9 -14.4 8.4 -5.9 8.7 -10 27.3 -10 45.6 0 10 0.3 11 3.5 12.8 2.3 1.2 4.9 0.1 6.5 -2.8z m98.1 0.7 c14.7 -7.2 15.6 -22.7 1.7 -27.7 -2.3 -0.8 -2.8 -1.6 -2.8 -4.2 0 -2.7 0.7 -3.7 3.6 -5.6 3.6 -2.3 7.3 -8.8 7.4 -12.7 0 -3.4 -3.7 -8.3 -8.2 -10.7 -3.7 -1.9 -6.2 -2.3 -18.5 -2.6 -17.4 -0.5 -19 -0.2 -20.9 4.3 -1.8 4.4 -2.1 53.9 -0.3 57.9 1.8 4 4.4 4.6 18.9 4.3 12.5 -0.2 13.9 -0.4 19.1 -3z m198.4 0.8 l2.5 -2.4 0 -27.1 0 -27 6.9 0 c5.4 0 7.4 -0.4 9.2 -2 l2.4 -2 -2.4 -2 c-2.2 -1.9 -3.8 -2 -23.1 -2 -19.5 0 -20.8 0.1 -22.5 2 -3 3.3 -0.1 5.3 8.4 5.8 l6.9 0.4 0.7 8.4 c0.4 4.6 0.4 15.7 0 24.7 -0.8 17.9 -0.1 22.6 3.8 24.5 3.4 1.6 4.6 1.4 7.2 -1.3z"/>
  <path d="M943.3 607 c-1.2 -0.5 -3 -2.4 -4 -4.2 -1.5 -2.8 -1.8 -5.8 -1.8 -21.3 0 -24.3 1.1 -26.5 13 -26.5 11.5 0 12.8 2.2 13.3 22.9 0.5 18.2 -0.1 23.2 -3.2 26.8 -2 2.3 -3.2 2.7 -8.7 3 -3.5 0.1 -7.4 -0.1 -8.6 -0.7z"/>
  <path d="M797.5 581.3 c0.9 -13.2 2.1 -20 4 -23 1.3 -2 2.4 -2.3 7.4 -2.3 5 0 6.1 0.3 7.4 2.3 2.6 4 3.8 9.8 4.4 22 l0.6 11.7 -12.2 0 -12.3 0 0.7 -10.7z"/>
  <path d="M868 594.5 l0 -13.5 8.4 0 c14.3 0 17.6 2.6 17.6 14.1 0 5.6 -0.3 6.4 -3.4 9.5 -3.4 3.4 -3.4 3.4 -13 3.4 l-9.6 0 0 -13.5z"/>
  <path d="M868 565.6 l0 -11.6 6.8 0 c13.6 0 17.8 3 17 12.1 -0.4 3.8 -1.2 5.8 -3.2 7.7 -2.4 2.5 -3.5 2.7 -11.6 3 l-9 0.4 0 -11.6z"/>
  <path d="M1528.8 669.9 c-2.2 -1.2 -2.3 -2.9 -0.3 -2.9 0.8 0 1.5 0.6 1.5 1.4 0 0.8 0.6 1.7 1.3 1.9 0.6 0.3 0.8 0.6 0.2 0.6 -0.5 0 -1.8 -0.4 -2.7 -1z"/>
  <path d="M1762.9 664.8 c-1.2 -1.8 -3.4 -4.5 -4.7 -6 -1.4 -1.6 -2.1 -2.8 -1.6 -2.8 1 0 4.4 4.1 7.6 9.2 2.4 3.9 1.4 3.5 -1.3 -0.4z"/>
  <path d="M1582.8 659.9 c-0.9 -1.6 -1.3 -2.9 -0.7 -2.9 0.9 0 3.3 4.9 2.7 5.6 -0.2 0.1 -1.1 -1.1 -2 -2.7z"/>
  <path d="M1663.4 659.8 c-0.4 -0.7 -1.4 -2.4 -2.3 -3.8 -1.5 -2.5 -1.5 -2.5 0.6 -0.7 1.2 1 2.3 2.7 2.6 3.8 0.6 2.2 0.2 2.5 -0.9 0.7z"/>
  <path d="M1889.1 657 c-1.3 -1.1 -1.8 -2 -1.3 -2 0.6 0 1.4 0.5 1.7 1 0.3 0.6 1.5 1 2.6 1 1.1 0 1.7 0.5 1.4 1 -0.9 1.4 -1.7 1.2 -4.4 -1z"/>
  <path d="M1254.8 651.9 c-2.9 -1.6 -2.1 -2.9 1.7 -2.9 2.8 0 3.5 0.4 3.5 2 0 2.2 -2.4 2.6 -5.2 0.9z"/>
  <path d="M1861.3 649 c-2.3 -2.2 -4 -4 -3.7 -4 1.1 0 7.3 5.2 7.8 6.6 0.7 1.9 0.7 1.9 -4.1 -2.6z"/>
 </g>
 <g fill="#ce0000">
  <path d="M1441 677.9 c-14.1 -11.4 -29 -12.9 -44.3 -4.4 l-4.5 2.6 -3.4 -3.4 c-16.9 -17.2 -43.4 -21.5 -65.4 -10.7 -3.4 1.6 -6.5 3 -6.9 3 -0.4 0 -3.2 -1.6 -6.3 -3.5 -13 -7.9 -29.4 -11.3 -41.9 -8.7 -4.1 0.9 -6.1 0.8 -10.5 -0.4 -7.6 -2.2 -17.1 -2.8 -22.4 -1.5 l-4.6 1.2 -8.2 -5.5 c-11 -7.5 -20.3 -10.6 -31.7 -10.6 -10.8 0 -17.6 1.3 -25.4 5 -7 3.3 -19 12.9 -21.4 17.1 -0.9 1.6 -1.9 2.9 -2.3 2.9 -0.5 0 -0.8 -148.7 -0.8 -330.5 l0 -330.5 194.5 0 194.5 0 0 335 c0 184.3 -0.2 335 -0.4 335 -0.3 0 -2.8 -1.5 -5.7 -3.2 -5 -3.1 -5.7 -3.3 -14.9 -3.3 -9.2 0 -10.1 0.2 -17.1 3.7 -6.9 3.5 -7.7 3.7 -11.4 2.7 -6.8 -1.9 -17.9 -0.5 -25.1 3.2 -3.5 1.7 -7.1 4 -8 5 -2.2 2.4 -3.3 2.4 -6.4 -0.2z"/>
 </g>
 <g fill="#000000">
  <path d="M939 617.4 c-7 -2.6 -11.6 -6.8 -15.2 -14.2 -3.3 -6.6 -3.3 -6.8 -3.3 -21.2 0 -17.9 1.5 -23.1 8.5 -30 6.3 -6.4 12.4 -8.4 23.9 -7.8 17.1 0.9 25.7 9.6 28.1 28.5 2.7 20.6 -4.1 38.9 -16.2 43.8 -6.2 2.5 -20.1 3 -25.8 0.9z m18.7 -15.8 c1.2 -1.4 2.5 -4.6 2.8 -7 1.1 -6.9 0.1 -28.7 -1.4 -31.7 -2.2 -4.5 -8.3 -6.2 -13.5 -3.8 -4.2 1.9 -5.1 6 -5.1 22.4 0 16.2 1.1 20.5 5.8 22.5 3.5 1.5 9 0.3 11.4 -2.4z"/>
  <path d="M1010.2 617.1 c-6.4 -2.2 -10.8 -6.1 -13.4 -12 -2.4 -5.3 -3.5 -25.9 -2.3 -44.5 0.9 -14.2 1.7 -15.6 9.5 -15.6 4.1 0 5.6 0.5 7.5 2.5 l2.5 2.4 0 22.3 c0 23.6 0.7 28.8 4.3 31.3 3.7 2.6 10.6 1.3 12.4 -2.4 0.4 -0.9 1 -13 1.3 -26.9 0.5 -25.2 0.5 -25.4 2.9 -27.3 3.4 -2.8 10.1 -2.6 12.9 0.4 2.1 2.3 2.2 3 2.2 27.3 0 28.7 -0.6 32 -7 37.8 -7.1 6.4 -21.8 8.5 -32.8 4.7z"/>
  <path d="M786.3 616.8 c-1.3 -0.6 -2.6 -2 -3 -3.2 -1 -3.3 -0.4 -24.1 1.2 -34.8 3.6 -24.5 11.2 -34.8 25.9 -34.8 17.8 0 25.9 15.5 27.3 52.7 l0.6 16.1 -2.6 2.6 c-2 2 -3.6 2.6 -7 2.6 -6.8 0 -9.1 -2.4 -9.7 -9.9 -0.3 -3.4 -0.8 -6.1 -1.2 -6.1 -0.5 0 -4.6 0 -9.3 0 l-8.5 0 0 5.5 c0 4.6 -0.4 6 -2.5 8 -2.6 2.7 -7.2 3.2 -11.2 1.3z m31.4 -36.5 c-1.1 -14.9 -3.8 -21.3 -8.8 -21.3 -5 0 -7 5.6 -8.3 22.8 l-0.5 7.2 9.1 0 9.1 0 -0.6 -8.7z"/>
  <path d="M856.4 616.9 c-4.1 -2.1 -4.4 -4.7 -4.4 -35 0 -31.8 0.5 -35.2 5.4 -36.5 1.4 -0.3 10.3 -0.4 19.8 -0.2 15.6 0.3 17.7 0.6 21.6 2.6 5.5 2.9 8.2 7.3 8.2 13.4 0 6.8 -2.6 12.5 -7.3 15.9 l-3.9 2.9 2.8 1 c4.6 1.6 5.7 2.5 8.2 6.1 2 2.9 2.3 4.4 2 10 -0.5 8.8 -3.8 13.8 -11.7 17.6 -5.3 2.7 -6.3 2.8 -22.1 3 -10.3 0.2 -17.3 -0.2 -18.6 -0.8z m31.2 -15.3 c3.8 -3.8 4.4 -7.7 1.9 -12.5 -1.7 -3.5 -6 -5.1 -13.1 -5.1 l-5.4 0 0 10.5 0 10.5 6.6 0 c6.2 0 6.8 -0.2 10 -3.4z m-2.2 -30.5 c7.3 -6.8 1.8 -14.1 -10.6 -14.1 l-3.8 0 0 8.6 0 8.6 6 -0.4 c4.4 -0.3 6.6 -1 8.4 -2.7z"/>
  <path d="M1082.3 616.8 c-3.9 -1.9 -4.7 -6.6 -4 -26.3 0.4 -9.9 0.4 -21 0.1 -24.6 l-0.7 -6.7 -7 -0.4 c-5.8 -0.3 -7.3 -0.8 -8.8 -2.7 -2.4 -3 -2.4 -5.2 0.2 -8.5 l2 -2.6 24 0 24 0 2.4 2.5 c1.4 1.3 2.5 3.4 2.5 4.5 0 1.2 -1.1 3.2 -2.5 4.5 -2.1 2.2 -3.3 2.5 -9.5 2.5 l-7 0 0 27 0 27.1 -2.5 2.4 c-1.8 1.9 -3.4 2.5 -6.7 2.4 -2.4 0 -5.3 -0.5 -6.5 -1.1z"/>
 </g>
</svg>